<?xml version="1.0" encoding="utf-8"?>
<!-- Generator: Adobe Illustrator 23.0.2, SVG Export Plug-In . SVG Version: 6.00 Build 0)  -->
<svg version="1.1" id="Layer_1" xmlns="http://www.w3.org/2000/svg" xmlns:xlink="http://www.w3.org/1999/xlink" x="0px" y="0px"
	 viewBox="0 0 22.6 22.6" style="enable-background:new 0 0 22.6 22.6;" xml:space="preserve">
<style type="text/css">
	.st0{fill:#00235A;}
</style>
<g>
	<g>
		<path class="st0" d="M11.3,0c6.2,0,11.3,5.1,11.3,11.3c0,6.2-5.1,11.3-11.3,11.3S0,17.6,0,11.3c0,0,0,0,0,0C0,5.1,5.1,0,11.3,0
			L11.3,0z M11.3,21.2c5.5,0,9.9-4.4,9.9-9.9s-4.4-9.9-9.9-9.9c-5.5,0-9.9,4.4-9.9,9.9c0,0,0,0,0,0C1.4,16.8,5.8,21.2,11.3,21.2
			L11.3,21.2z"/>
		<path class="st0" d="M5,7.4c0-0.2,0-0.4,0-0.5c0-0.3,0.2-0.5,0.4-0.7C5.6,5.9,5.8,5.7,6,5.5c0.6-0.6,1.6-0.7,2.2-0.1
			c0,0,0,0,0.1,0.1c0.2,0.2,0.4,0.5,0.5,0.8c0.1,0.5,0.3,1,0.4,1.5c0.1,0.5,0,1.1-0.4,1.5C8.7,9.5,8.5,9.6,8.3,9.8
			c-0.1,0-0.1,0.1-0.1,0.2c0.6,1.9,2,3.5,3.9,4.2c0.2,0.1,0.3,0.1,0.5,0.2c0.1,0,0.1,0,0.2,0c0.2-0.2,0.3-0.4,0.5-0.5
			c0.4-0.4,0.9-0.5,1.5-0.4c0.5,0.1,1.1,0.3,1.6,0.4c0.9,0.3,1.4,1.2,1.1,2.1c0,0.1,0,0.1-0.1,0.2c-0.1,0.1-0.2,0.3-0.3,0.4
			c-0.3,0.3-0.5,0.5-0.8,0.8c-0.2,0.2-0.5,0.4-0.8,0.3c-5.3,0-9.9-4-10.6-9.3C5,8.1,5,7.7,5,7.4L5,7.4z"/>
	</g>
</g>
</svg>
