<svg xmlns="http://www.w3.org/2000/svg" width="30" height="30" viewBox="0 0 30 30">
  <g id="Group_1" data-name="Group 1" transform="translate(-208)">
    <path id="Path_4" data-name="Path 4" d="M230.5,6.5a4.02,4.02,0,0,0-2.6-.8h-9.8a7.719,7.719,0,0,0-1.5.2,4.2,4.2,0,0,0-2.9,4.1v9.9a7.72,7.72,0,0,0,.2,1.5,4.2,4.2,0,0,0,4.1,2.9h9.9a7.719,7.719,0,0,0,1.5-.2,4.2,4.2,0,0,0,2.9-4.1V10A3.981,3.981,0,0,0,230.5,6.5ZM223,20.8a5.869,5.869,0,0,1-5.8-5.8,5.8,5.8,0,1,1,5.8,5.8Zm6.1-10.4a1.5,1.5,0,1,1,1.5-1.5A1.538,1.538,0,0,1,229.1,10.4Z" fill="#00235a"/>
    <path id="Path_5" data-name="Path 5" d="M223,11.2a3.8,3.8,0,1,0,3.8,3.8A3.8,3.8,0,0,0,223,11.2Z" fill="#00235a"/>
    <path id="Path_6" data-name="Path 6" d="M234,0H212a4.012,4.012,0,0,0-4,4V26a4.012,4.012,0,0,0,4,4h22a4.012,4.012,0,0,0,4-4V4A4.012,4.012,0,0,0,234,0Zm.3,20.5c0,.2-.1.5-.1.7a6.088,6.088,0,0,1-4.7,4.9c-.3.1-.7.1-1,.2H217.2a6.07,6.07,0,0,1-1.8-.5,6.247,6.247,0,0,1-3.8-5.8V9.9a5.751,5.751,0,0,1,.8-3.1A6.08,6.08,0,0,1,218,3.6h9.9a5.7,5.7,0,0,1,1.3.1,6.088,6.088,0,0,1,4.9,4.7c.1.3.1.7.2,1Z" fill="#00235a"/>
  </g>
</svg>
