<svg xmlns="http://www.w3.org/2000/svg" width="126.338" height="64.177" viewBox="0 0 126.338 64.177">
  <g id="engagement1_icon" data-name="engagement1 icon" transform="translate(-2695.135 -2134.901)">
    <g id="Rectangle_69" data-name="Rectangle 69" transform="translate(2754.823 2170.761)" fill="none" stroke="#2e42f8" stroke-miterlimit="10" stroke-width="2">
      <rect width="66.65" height="28.317" stroke="none"/>
      <rect x="1" y="1" width="64.65" height="26.317" fill="none"/>
    </g>
    <g id="Rectangle_70" data-name="Rectangle 70" transform="translate(2716.49 2134.901)" fill="none" stroke="#2e42f8" stroke-miterlimit="10" stroke-width="2">
      <rect width="28.317" height="28.317" stroke="none"/>
      <rect x="1" y="1" width="26.317" height="26.317" fill="none"/>
    </g>
    <g id="Rectangle_71" data-name="Rectangle 71" transform="translate(2754.823 2134.901)" fill="none" stroke="#2e42f8" stroke-miterlimit="10" stroke-width="2">
      <rect width="28.317" height="28.317" stroke="none"/>
      <rect x="1" y="1" width="26.317" height="26.317" fill="none"/>
    </g>
    <g id="Rectangle_72" data-name="Rectangle 72" transform="translate(2793.156 2134.901)" fill="none" stroke="#2e42f8" stroke-miterlimit="10" stroke-width="2">
      <rect width="28.317" height="28.317" rx="14.158" stroke="none"/>
      <rect x="1" y="1" width="26.317" height="26.317" rx="13.158" fill="none"/>
    </g>
    <g id="Rectangle_73" data-name="Rectangle 73" transform="translate(2716.49 2170.761)" fill="none" stroke="#2e42f8" stroke-miterlimit="10" stroke-width="2" stroke-dasharray="3 5">
      <rect width="28.317" height="28.317" rx="14.158" stroke="none"/>
      <rect x="1" y="1" width="26.317" height="26.317" rx="13.158" fill="none"/>
    </g>
    <rect id="Rectangle_74" data-name="Rectangle 74" width="28.317" height="28.317" rx="14.158" transform="translate(2695.135 2170.761)" fill="#14f595"/>
    <line id="Line_111" data-name="Line 111" x2="21.355" transform="translate(2709.293 2184.92)" fill="none" stroke="#2e42f8" stroke-miterlimit="10" stroke-width="2"/>
    <path id="Path_41" data-name="Path 41" d="M2782.65,2262.481l3.468,3.468-3.5,3.5" transform="translate(-55.468 -80.888)" fill="none" stroke="#2e42f8" stroke-miterlimit="10" stroke-width="2"/>
  </g>
</svg>
