<?xml version="1.0" encoding="utf-8"?>
<!-- Generator: Adobe Illustrator 23.0.2, SVG Export Plug-In . SVG Version: 6.00 Build 0)  -->
<svg version="1.1" id="Layer_1" xmlns="http://www.w3.org/2000/svg" xmlns:xlink="http://www.w3.org/1999/xlink" x="0px" y="0px"
	 viewBox="0 0 16.7 24.3" style="enable-background:new 0 0 16.7 24.3;" xml:space="preserve">
<style type="text/css">
	.st0{fill:#00235A;}
</style>
<g>
	<path class="st0" d="M8.4,0c0.1,0,0.3,0,0.4,0c0.3,0,0.5,0,0.8,0.1c0.5,0.1,1.1,0.2,1.6,0.4c0.7,0.3,1.4,0.6,2,1.1
		c0.5,0.3,0.9,0.7,1.3,1.1c0.4,0.4,0.7,0.8,1,1.3c0.4,0.6,0.6,1.2,0.8,1.8c0.1,0.4,0.2,0.9,0.3,1.4c0.1,0.6,0.1,1.1,0.1,1.7
		c0,0.4-0.1,0.7-0.1,1.1c-0.1,0.3-0.1,0.6-0.2,0.9c-0.1,0.3-0.2,0.7-0.4,1c-0.4,0.7-0.8,1.5-1.2,2.2c-0.3,0.6-0.7,1.2-1,1.8
		l-1.2,2.1c-0.3,0.6-0.6,1.1-1,1.7c-0.3,0.6-0.7,1.2-1,1.8c-0.4,0.7-0.8,1.4-1.2,2.1C9.2,23.8,9,24,8.8,24.1
		c-0.4,0.2-0.9,0.1-1.2-0.2c-0.2-0.3-0.3-0.5-0.5-0.8c-0.2-0.4-0.5-0.9-0.7-1.3c-0.3-0.6-0.6-1.1-1-1.7c-0.3-0.5-0.5-0.9-0.8-1.4
		s-0.5-0.9-0.8-1.3L3.1,16c-0.2-0.4-0.4-0.7-0.6-1.1c-0.3-0.5-0.5-0.9-0.8-1.4c-0.2-0.4-0.4-0.7-0.6-1.1c-0.3-0.4-0.5-0.9-0.6-1.4
		c-0.1-0.4-0.2-0.7-0.3-1.1C0.1,9.7,0,9.4,0,9.1c0-0.3,0-0.6,0-0.9c0-0.3,0-0.6,0.1-0.9c0.1-0.6,0.2-1.1,0.4-1.6
		c0.4-1.3,1.2-2.4,2.1-3.3c0.5-0.5,1-0.9,1.6-1.2c0.4-0.3,0.9-0.5,1.3-0.6C6,0.3,6.4,0.2,6.8,0.1C7.3,0,7.9,0,8.4,0L8.4,0z M4.6,9
		c0,2,1.5,3.6,3.5,3.7c1.1,0.1,2.1-0.3,2.9-1.1c0.7-0.6,1.1-1.5,1.1-2.5c0.1-2.1-1.5-3.8-3.5-3.9C6.5,5.2,4.8,6.8,4.6,8.8
		C4.6,8.9,4.6,9,4.6,9L4.6,9z"/>
</g>
</svg>
