<svg id="Layer_1" data-name="Layer 1" xmlns="http://www.w3.org/2000/svg" viewBox="0 0 30 30"><defs><style>.cls-1{fill:#00235a;}</style></defs><path class="cls-1" d="M26,0H4A4,4,0,0,0,0,4V26a4,4,0,0,0,4,4H26a4,4,0,0,0,4-4V4A4,4,0,0,0,26,0Zm-.41,8.48L25.18,9a7.33,7.33,0,0,1-.85.91,9.19,9.19,0,0,1-.76.64l-.06.05a.08.08,0,0,0,0,.08v.13c0,.28,0,.55,0,.82s0,.29,0,.44l0,.41c0,.27-.07.54-.12.8a12.05,12.05,0,0,1-.57,2.14c-.11.32-.24.63-.37.93s-.27.56-.41.83a14,14,0,0,1-.82,1.33c-.19.26-.38.51-.58.76s-.28.33-.43.48l-.54.56c-.22.21-.45.41-.69.61s-.57.45-.87.65-.57.37-.86.53l-.67.34a10.46,10.46,0,0,1-1.09.46,11.75,11.75,0,0,1-1.32.38c-.39.09-.78.17-1.17.22l-.7.08-.42,0a11.2,11.2,0,0,1-1.16,0,3.71,3.71,0,0,1-.47,0l-.41,0L9,23.49c-.35-.06-.71-.13-1-.22a13.62,13.62,0,0,1-1.53-.49,13.62,13.62,0,0,1-1.28-.6l-.75-.44,0,0v0a8.81,8.81,0,0,0,6.41-1.8,4.4,4.4,0,0,1-3.35-1.7,4.06,4.06,0,0,1-.71-1.33h0a4.69,4.69,0,0,0,1.06.06,4.21,4.21,0,0,0,.78-.12l0,0a4.37,4.37,0,0,1-3.12-2.6,4,4,0,0,1-.33-1.73.93.93,0,0,1,.2.1l.21.09.2.08.21.07.22.06.21.05.22,0,.22,0h.23l0-.05-.39-.3c-.13-.12-.25-.24-.37-.37a4.26,4.26,0,0,1-.41-.54,4.49,4.49,0,0,1-.63-1.65,2.83,2.83,0,0,1,0-.5,2.44,2.44,0,0,1,0-.27,4.31,4.31,0,0,1,.38-1.73L5.8,7.2l0,0s0,0,.07.06c.17.21.35.41.54.61l.4.4c.19.19.39.37.6.55s.53.43.81.63a11.48,11.48,0,0,0,1,.67l.73.39c.4.19.81.36,1.22.51s.85.28,1.28.39.84.18,1.27.24l.65.07.33,0s0,0,.05,0v-.06a3.35,3.35,0,0,1-.07-.44c0-.13,0-.28,0-.42a4.32,4.32,0,0,1,.22-1.43A4.41,4.41,0,0,1,15.67,8a4.66,4.66,0,0,1,.48-.51,4.22,4.22,0,0,1,2.17-1.07A3.39,3.39,0,0,1,19,6.35c.21,0,.42,0,.63,0a4.15,4.15,0,0,1,1,.23,4.36,4.36,0,0,1,1,.51,4.23,4.23,0,0,1,.61.51l.06.06a.11.11,0,0,0,.11,0l.17,0a8.63,8.63,0,0,0,1.67-.56,7.16,7.16,0,0,0,.78-.4l.07,0v.06a4.55,4.55,0,0,1-.73,1.33,5,5,0,0,1-.5.53,4.69,4.69,0,0,1-.55.42l-.07.05a7.52,7.52,0,0,0,1.24-.23c.4-.12.79-.26,1.18-.42C25.62,8.45,25.6,8.46,25.59,8.48Z"/></svg>