<svg xmlns="http://www.w3.org/2000/svg" width="30" height="30" viewBox="0 0 30 30">
  <g id="Group_2" data-name="Group 2" transform="translate(-156.1)">
    <path id="Path_7" data-name="Path 7" d="M182.1,0h-22a4.012,4.012,0,0,0-4,4V26a4.012,4.012,0,0,0,4,4h22a4.012,4.012,0,0,0,4-4V4A4.012,4.012,0,0,0,182.1,0Zm1.6,16.3c0,.6-.1,1.2-.1,1.8-.1.9-.2,1.7-.3,2.6a3.582,3.582,0,0,1-.4,1.1,3.311,3.311,0,0,1-2.2,1.6c-.4.1-.9.1-1.3.2-.7.1-1.4.1-2.2.2-.6,0-1.3.1-1.9.1-1.7.1-3.5.1-5.2.1-1,0-2,0-3-.1a12.1,12.1,0,0,1-1.9-.1c-.6,0-1.2-.1-1.8-.1a9.971,9.971,0,0,1-1.6-.2,4.424,4.424,0,0,1-1.5-.5,3.364,3.364,0,0,1-1.3-2c-.1-.5-.2-1.1-.3-1.6a22.754,22.754,0,0,1-.2-2.6V13.9a8.6,8.6,0,0,1,.1-1.6,12.252,12.252,0,0,1,.2-1.9c.1-.4.1-.8.2-1.2a3.369,3.369,0,0,1,1.1-1.7,4.671,4.671,0,0,1,1-.5,1.483,1.483,0,0,1,.7-.1,11.076,11.076,0,0,1,1.9-.2c.5,0,1-.1,1.5-.1,2.1-.1,4.1-.1,6.4-.1h2.7a19.269,19.269,0,0,1,2.4.1c.6,0,1.2.1,1.8.1a8.753,8.753,0,0,1,1.6.2,5.732,5.732,0,0,1,1.4.4,3.055,3.055,0,0,1,1.6,2.1c.1.5.2,1.1.3,1.7a22.751,22.751,0,0,1,.2,2.6A19.341,19.341,0,0,1,183.7,16.3Z" fill="#00235a"/>
    <path id="Path_8" data-name="Path 8" d="M168.7,18.8c2.2-1.3,4.4-2.5,6.6-3.8-2.2-1.3-4.4-2.5-6.6-3.8Z" fill="#00235a"/>
  </g>
</svg>
